<svg xmlns="http://www.w3.org/2000/svg" viewBox="0 0 196.08 25"><defs><style>.cls-1{fill:#fff;}.cls-2{fill:#999;}.cls-3{fill:#e5e5e5;}</style></defs><title>Bottom</title><g id="Layer_2" data-name="Layer 2"><g id="Home_Page" data-name="Home Page"><g id="Bottom"><path class="cls-1" d="M0,6.87a1.38,1.38,0,0,1,.41-1,1.39,1.39,0,0,1,1-.41,1.39,1.39,0,0,1,1,.41,1.41,1.41,0,0,1,0,2,1.32,1.32,0,0,1-1,.42,1.37,1.37,0,0,1-1-.42A1.38,1.38,0,0,1,0,6.87Zm2.49,3.9v9.38H.33V10.77Z"/><path class="cls-1" d="M28,4.17,22.69,15.72,17.59,4.17l-3.13,16-4.6-6.34a4,4,0,0,0,2.38-1.45,4.19,4.19,0,0,0,.91-2.71,4.08,4.08,0,0,0-1.44-3.26A6.59,6.59,0,0,0,7.45,5.28H4.82V20.15H7.06V14.06h.41l4.24,6.09h5.07l1.6-9,4.27,9.66,4.4-9.65,1.44,9h2.3ZM7.06,12.11V7.39h.8c2.07,0,3.1.76,3.1,2.28S9.9,12.11,7.78,12.11Z"/><polyline class="cls-1" points="34.99 5.29 33.32 5.29 32.15 5.29 30.49 5.29 33.12 20.15 35.95 20.15 35.95 20.15 37.62 20.15 34.99 5.29"/><polyline class="cls-2" points="43.24 5.29 41.24 5.29 43.87 20.15 45.87 20.15 43.24 5.29"/><polyline class="cls-3" points="39.92 5.29 39.51 5.29 37.09 5.29 36.67 5.29 39.31 20.15 42.14 20.15 42.14 20.15 42.56 20.15 39.92 5.29"/><rect class="cls-1" x="119.38" y="6.41" width="2.68" height="12.17"/><polygon class="cls-1" points="125.24 6.41 127.92 6.41 127.92 16.15 133.99 16.15 133.99 18.59 125.24 18.59 125.24 6.41"/><polygon class="cls-1" points="135.95 6.41 138.63 6.41 138.63 16.15 144.7 16.15 144.7 18.59 135.95 18.59 135.95 6.41"/><rect class="cls-1" x="146.72" y="6.41" width="2.68" height="12.17"/><polygon class="cls-1" points="152.58 6.41 155.05 6.41 160.76 13.91 160.76 6.41 163.4 6.41 163.4 18.59 161.12 18.59 155.23 10.85 155.23 18.59 152.58 18.59 152.58 6.41"/><path class="cls-1" d="M176.07,12.54v0a3.7,3.7,0,0,0-3.68-3.83,3.65,3.65,0,0,0-3.66,3.8v0a3.71,3.71,0,0,0,3.69,3.83,3.64,3.64,0,0,0,3.65-3.79m-10.14,0v0a6.3,6.3,0,0,1,6.49-6.29,6.23,6.23,0,0,1,6.45,6.26v0a6.47,6.47,0,0,1-12.94,0"/><rect class="cls-1" x="181.47" y="6.41" width="2.68" height="12.17"/><path class="cls-1" d="M186.44,16.81,188,14.92a5.59,5.59,0,0,0,3.63,1.48c1.1,0,1.76-.44,1.76-1.15v0c0-.67-.42-1-2.45-1.54-2.46-.63-4-1.31-4-3.73v0c0-2.21,1.77-3.67,4.26-3.67a7,7,0,0,1,4.52,1.55l-1.39,2a5.7,5.7,0,0,0-3.16-1.2c-1,0-1.57.46-1.57,1.06v0c0,.8.52,1.06,2.63,1.6,2.47.65,3.86,1.53,3.86,3.65v0c0,2.42-1.84,3.77-4.47,3.77a7.74,7.74,0,0,1-5.17-2"/><path class="cls-1" d="M107.85,17h1.92v3.2H99.51V17h1.93a.64.64,0,0,0,.64-.64V8.65a.64.64,0,0,0-.64-.64H99.51V4.81h10.26V8h-1.92a.64.64,0,0,0-.64.64v7.7a.64.64,0,0,0,.64.64m2.56-8.34V4.17H98.87V8.65h2.57v7.7H98.87v4.48h11.54V16.35h-2.56V8.65Z"/><path class="cls-1" d="M107.85,8h1.92V4.81H99.51V8h1.93a.64.64,0,0,1,.64.64v7.7a.64.64,0,0,1-.64.64H99.51v3.2h10.26V17h-1.92a.64.64,0,0,1-.64-.64V8.65a.64.64,0,0,1,.64-.64"/><rect class="cls-1" x="72.08" width="0.59" height="25"/></g></g></g></svg>